<svg xmlns="http://www.w3.org/2000/svg" viewBox="0 0 19 17" width="19" height="17">
	<defs>
		<clipPath clipPathUnits="userSpaceOnUse" id="cp1">
			<path d="M-1353 -2035L567 -2035L567 76L-1353 76Z" />
		</clipPath>
	</defs>
	<style>
		tspan { white-space:pre }
		.shp0 { fill: #767676 } 
	</style>
	<g id="Web 1920 – 2" clip-path="url(#cp1)">
		<g id="Group 1096">
			<g id="Group 1093">
				<g id="Group 1092">
					<g id="Group 1068">
						<g id="Group 1066">
							<g id="comment-white-oval-bubble">
								<path id="Path 2079" fill-rule="evenodd" class="shp0" d="M18.39 7.57C18.39 8.76 17.98 9.86 17.16 10.87C16.34 11.88 15.22 12.67 13.81 13.26C12.4 13.84 10.86 14.14 9.2 14.14C8.72 14.14 8.22 14.11 7.71 14.05C6.35 15.25 4.78 16.08 2.99 16.54C2.65 16.63 2.26 16.71 1.82 16.76L1.76 16.76C1.66 16.76 1.57 16.73 1.49 16.66C1.41 16.58 1.35 16.49 1.32 16.37L1.32 16.36C1.3 16.34 1.3 16.29 1.32 16.24C1.34 16.19 1.34 16.15 1.34 16.14C1.34 16.12 1.35 16.09 1.39 16.04L1.45 15.95C1.45 15.95 1.47 15.92 1.52 15.86C1.57 15.8 1.59 15.77 1.6 15.77C1.65 15.71 1.75 15.6 1.92 15.41C2.08 15.23 2.2 15.1 2.27 15.02C2.34 14.95 2.45 14.81 2.59 14.62C2.73 14.43 2.84 14.25 2.92 14.1C3.01 13.94 3.1 13.74 3.2 13.49C3.3 13.24 3.39 12.98 3.47 12.71C2.39 12.1 1.55 11.35 0.93 10.45C0.31 9.56 0 8.59 0 7.57C0 6.38 0.41 5.28 1.23 4.27C2.05 3.26 3.17 2.46 4.58 1.88C5.99 1.29 7.53 1 9.2 1C10.86 1 12.4 1.29 13.81 1.88C15.22 2.46 16.34 3.26 17.16 4.27C17.98 5.28 18.39 6.38 18.39 7.57ZM17.08 7.57C17.08 6.63 16.72 5.76 16 4.95C15.29 4.14 14.32 3.5 13.11 3.03C11.9 2.55 10.59 2.31 9.2 2.31C7.8 2.31 6.49 2.55 5.28 3.03C4.07 3.5 3.1 4.14 2.39 4.95C1.67 5.76 1.31 6.63 1.31 7.57C1.31 8.33 1.56 9.06 2.05 9.76C2.54 10.45 3.23 11.05 4.12 11.56L5.01 12.07L4.73 13.06C4.57 13.68 4.33 14.27 4.01 14.82C5.05 14.39 5.99 13.81 6.83 13.07L7.28 12.68L7.86 12.74C8.33 12.79 8.78 12.82 9.19 12.82C10.59 12.82 11.9 12.58 13.11 12.11C14.32 11.63 15.29 10.99 16 10.18C16.72 9.38 17.08 8.51 17.08 7.57Z" />
							</g>
						</g>
					</g>
				</g>
			</g>
		</g>
	</g>
</svg>