<svg xmlns="http://www.w3.org/2000/svg" viewBox="0 0 22 15" width="22" height="15">
	<defs>
		<clipPath clipPathUnits="userSpaceOnUse" id="cp1">
			<path d="M-1438 -2036L482 -2036L482 75L-1438 75Z" />
		</clipPath>
	</defs>
	<style>
		tspan { white-space:pre }
		.shp0 { fill: #767676 } 
	</style>
	<g id="Web 1920 – 2" clip-path="url(#cp1)">
		<g id="Group 1096">
			<g id="Group 1093">
				<g id="Group 1092">
					<g id="Group 1068">
						<g id="Group 1066">
							<path id="retweet" fill-rule="evenodd" class="shp0" d="M21.5 11.32L18.19 14.62L14.86 11.3L16.03 10.13L17.35 11.44L17.35 3.43C17.35 3.21 17.27 3 17.12 2.85C16.96 2.69 16.75 2.6 16.53 2.6L7.62 2.6L5.96 0.95L16.53 0.95C17.2 0.95 17.82 1.21 18.29 1.68C18.76 2.15 19.01 2.77 19.01 3.43L19.01 11.46L20.33 10.15L21.5 11.32ZM14.17 12.95L15.84 14.61L5.26 14.61C4.6 14.61 3.97 14.35 3.5 13.88C3.03 13.41 2.78 12.78 2.78 12.12L2.78 4.09L1.46 5.41L0.29 4.24L3.6 0.94L6.93 4.25L5.76 5.43L4.44 4.11L4.44 12.13C4.44 12.35 4.52 12.55 4.68 12.71C4.83 12.87 5.04 12.95 5.26 12.95L14.17 12.95Z" />
						</g>
					</g>
				</g>
			</g>
		</g>
	</g>
</svg>